<?xml version="1.0" standalone="no"?>
<!DOCTYPE svg PUBLIC "-//W3C//DTD SVG 20010904//EN"
 "http://www.w3.org/TR/2001/REC-SVG-20010904/DTD/svg10.dtd">
<svg version="1.0" xmlns="http://www.w3.org/2000/svg"
 width="260.000000pt" height="260.000000pt" viewBox="0 0 260.000000 260.000000"
 preserveAspectRatio="xMidYMid meet">
<metadata>
Created by potrace 1.14, written by Peter Selinger 2001-2017
</metadata>
<g transform="translate(0.000000,260.000000) scale(0.100000,-0.100000)"
fill="#000000" stroke="none">
<path d="M1780 1695 l0 -905 -240 0 -240 0 0 590 0 590 -245 0 -245 0 0 -590
0 -590 -245 0 -245 0 0 245 0 245 -160 0 -160 0 0 -640 0 -640 160 0 160 0 0
235 0 235 245 0 245 0 0 -235 0 -235 245 0 245 0 0 235 0 235 240 0 240 0 0
-235 0 -235 325 0 325 0 0 1300 0 1300 -325 0 -325 0 0 -905z"/>
</g>
</svg>
