<svg width="182" height="68" viewBox="0 0 182 68" fill="none" xmlns="http://www.w3.org/2000/svg">
<path d="M65.6275 30.4317C64.3053 30.4317 63.1231 30.1595 62.0808 29.6151C61.0542 29.0551 60.2453 28.2929 59.6542 27.3284C59.0631 26.3484 58.7675 25.244 58.7675 24.0151V13.9351H62.2908V23.8051C62.2908 24.4584 62.4386 25.0495 62.7342 25.5784C63.0297 26.0917 63.4264 26.504 63.9242 26.8151C64.4375 27.1262 65.0053 27.2817 65.6275 27.2817C66.2653 27.2817 66.8408 27.1262 67.3542 26.8151C67.8831 26.504 68.2953 26.0917 68.5908 25.5784C68.902 25.0495 69.0575 24.4584 69.0575 23.8051V13.9351H72.4642V24.0151C72.4642 25.244 72.1686 26.3484 71.5775 27.3284C70.9864 28.2929 70.1697 29.0551 69.1275 29.6151C68.1008 30.1595 66.9342 30.4317 65.6275 30.4317ZM76.1004 30.2917V17.9484H79.297L79.4137 21.9151L78.8537 21.0984C79.0404 20.4606 79.3437 19.8851 79.7637 19.3717C80.1837 18.8429 80.6737 18.4306 81.2337 18.1351C81.8092 17.8395 82.4081 17.6917 83.0304 17.6917C83.2948 17.6917 83.5515 17.7151 83.8004 17.7617C84.0492 17.8084 84.2592 17.8629 84.4304 17.9251L83.5437 21.5651C83.357 21.4717 83.1315 21.394 82.867 21.3317C82.6026 21.254 82.3304 21.2151 82.0504 21.2151C81.677 21.2151 81.327 21.2851 81.0004 21.4251C80.6892 21.5495 80.417 21.7362 80.1837 21.9851C79.9504 22.2184 79.7637 22.4984 79.6237 22.8251C79.4992 23.1517 79.437 23.5095 79.437 23.8984V30.2917H76.1004ZM90.4274 30.5251C89.4007 30.5251 88.4752 30.2451 87.6507 29.6851C86.8263 29.1251 86.1729 28.3629 85.6907 27.3984C85.2085 26.434 84.9674 25.3295 84.9674 24.0851C84.9674 22.8406 85.2085 21.744 85.6907 20.7951C86.1885 19.8306 86.8574 19.0762 87.6974 18.5317C88.5374 17.9717 89.4941 17.6917 90.5674 17.6917C91.1741 17.6917 91.7263 17.7851 92.2241 17.9717C92.7374 18.1429 93.1807 18.384 93.5541 18.6951C93.9429 19.0062 94.2696 19.364 94.5341 19.7684C94.7985 20.1729 94.9852 20.6084 95.0941 21.0751L94.3941 20.9584V17.9484H97.6841V30.2917H94.3474V27.3284L95.0941 27.2584C94.9696 27.694 94.7674 28.1062 94.4874 28.4951C94.2074 28.884 93.8574 29.234 93.4374 29.5451C93.0329 29.8406 92.5741 30.0817 92.0607 30.2684C91.5474 30.4395 91.0029 30.5251 90.4274 30.5251ZM91.3374 27.6551C91.9596 27.6551 92.5041 27.5073 92.9707 27.2117C93.4374 26.9162 93.7952 26.504 94.0441 25.9751C94.3085 25.4306 94.4407 24.8006 94.4407 24.0851C94.4407 23.3851 94.3085 22.7706 94.0441 22.2417C93.7952 21.7129 93.4374 21.3006 92.9707 21.0051C92.5041 20.694 91.9596 20.5384 91.3374 20.5384C90.7307 20.5384 90.1941 20.694 89.7274 21.0051C89.2763 21.3006 88.9185 21.7129 88.6541 22.2417C88.3896 22.7706 88.2574 23.3851 88.2574 24.0851C88.2574 24.8006 88.3896 25.4306 88.6541 25.9751C88.9185 26.504 89.2763 26.9162 89.7274 27.2117C90.1941 27.5073 90.7307 27.6551 91.3374 27.6551ZM101.029 30.2917V13.0251H104.343V30.2917H101.029ZM107.262 25.1351V22.0551H114.892V25.1351H107.262ZM116.284 30.2917L122.677 13.9584H125.804L132.174 30.2917H128.581L125.291 21.4951C125.197 21.2462 125.081 20.9273 124.941 20.5384C124.816 20.1495 124.684 19.7373 124.544 19.3017C124.404 18.8662 124.272 18.454 124.147 18.0651C124.023 17.6606 123.93 17.3262 123.867 17.0617L124.497 17.0384C124.404 17.3962 124.295 17.7695 124.171 18.1584C124.062 18.5317 123.945 18.9206 123.821 19.3251C123.696 19.714 123.564 20.0951 123.424 20.4684C123.284 20.8417 123.152 21.2073 123.027 21.5651L119.737 30.2917H116.284ZM119.247 26.8617L120.391 24.0384H127.881L129.047 26.8617H119.247ZM133.511 30.2917V28.1917L140.021 19.7451V20.6784H133.511V17.9484H143.357V20.0951L137.127 28.3317L137.034 27.5617H143.521V30.2917H133.511ZM146.631 30.2917V17.9484H149.944V30.2917H146.631ZM148.264 15.4051C147.627 15.4051 147.129 15.2495 146.771 14.9384C146.413 14.6273 146.234 14.184 146.234 13.6084C146.234 13.0795 146.413 12.6517 146.771 12.3251C147.144 11.9829 147.642 11.8117 148.264 11.8117C148.902 11.8117 149.4 11.9751 149.758 12.3017C150.115 12.6129 150.294 13.0484 150.294 13.6084C150.294 14.1529 150.108 14.5884 149.734 14.9151C149.377 15.2417 148.887 15.4051 148.264 15.4051ZM155.21 35.6584L157.917 29.3117L157.963 31.2251L151.943 17.9484H155.7L158.71 25.0651C158.834 25.3295 158.951 25.6406 159.06 25.9984C159.184 26.3406 159.285 26.6751 159.363 27.0017L158.803 27.2351C158.897 26.9706 159.005 26.6673 159.13 26.3251C159.254 25.9829 159.379 25.6173 159.503 25.2284L162.093 17.9484H165.873L160.693 30.2917L158.57 35.6584H155.21ZM172.048 30.5251C171.022 30.5251 170.096 30.2451 169.272 29.6851C168.447 29.1251 167.794 28.3629 167.312 27.3984C166.83 26.434 166.588 25.3295 166.588 24.0851C166.588 22.8406 166.83 21.744 167.312 20.7951C167.81 19.8306 168.478 19.0762 169.318 18.5317C170.158 17.9717 171.115 17.6917 172.188 17.6917C172.795 17.6917 173.347 17.7851 173.845 17.9717C174.358 18.1429 174.802 18.384 175.175 18.6951C175.564 19.0062 175.891 19.364 176.155 19.7684C176.42 20.1729 176.606 20.6084 176.715 21.0751L176.015 20.9584V17.9484H179.305V30.2917H175.968V27.3284L176.715 27.2584C176.591 27.694 176.388 28.1062 176.108 28.4951C175.828 28.884 175.478 29.234 175.058 29.5451C174.654 29.8406 174.195 30.0817 173.682 30.2684C173.168 30.4395 172.624 30.5251 172.048 30.5251ZM172.958 27.6551C173.581 27.6551 174.125 27.5073 174.592 27.2117C175.058 26.9162 175.416 26.504 175.665 25.9751C175.93 25.4306 176.062 24.8006 176.062 24.0851C176.062 23.3851 175.93 22.7706 175.665 22.2417C175.416 21.7129 175.058 21.3006 174.592 21.0051C174.125 20.694 173.581 20.5384 172.958 20.5384C172.352 20.5384 171.815 20.694 171.348 21.0051C170.897 21.3006 170.54 21.7129 170.275 22.2417C170.011 22.7706 169.878 23.3851 169.878 24.0851C169.878 24.8006 170.011 25.4306 170.275 25.9751C170.54 26.504 170.897 26.9162 171.348 27.2117C171.815 27.5073 172.352 27.6551 172.958 27.6551Z" fill="white"/>
<path d="M58.7507 54.5417L64.2223 40.2501H66.0394L71.4702 54.5417H69.7348L66.2436 45.2726C66.1483 45.014 66.0394 44.7145 65.9169 44.3742C65.808 44.0204 65.6855 43.6597 65.5494 43.2922C65.4269 42.9111 65.3044 42.5436 65.1819 42.1897C65.073 41.8358 64.9709 41.5227 64.8757 41.2505H65.284C65.1751 41.5908 65.0594 41.9379 64.9369 42.2917C64.828 42.632 64.7123 42.9791 64.5898 43.333C64.4673 43.6733 64.3448 44.0136 64.2223 44.3538C64.0998 44.6941 63.9773 45.0344 63.8548 45.3747L60.384 54.5417H58.7507ZM61.0782 50.6013L61.6702 49.0497H68.4282L69.0815 50.6013H61.0782ZM77.9597 54.5417V43.8842H79.491L79.5318 46.7222L79.3685 46.3342C79.5182 45.8579 79.7564 45.4155 80.083 45.0072C80.4233 44.5988 80.8248 44.2722 81.2876 44.0272C81.7504 43.7822 82.2608 43.6597 82.8189 43.6597C83.0503 43.6597 83.268 43.6801 83.4722 43.7209C83.6764 43.7481 83.8465 43.789 83.9826 43.8434L83.5539 45.5584C83.3769 45.4767 83.1932 45.4223 83.0026 45.3951C82.8257 45.3542 82.6555 45.3338 82.4922 45.3338C82.0294 45.3338 81.6143 45.4155 81.2468 45.5788C80.8793 45.7422 80.5662 45.9736 80.3076 46.273C80.049 46.5588 79.8516 46.8923 79.7155 47.2734C79.5794 47.6545 79.5114 48.0629 79.5114 48.4984V54.5417H77.9597ZM90.0473 54.5417V43.8842H91.5786L91.6194 46.3138L91.3132 46.4159C91.4221 46.0076 91.599 45.6401 91.844 45.3134C92.1026 44.9731 92.4089 44.6805 92.7627 44.4355C93.1166 44.1905 93.5046 44.0067 93.9265 43.8842C94.3484 43.7481 94.7908 43.6801 95.2536 43.6801C95.8116 43.6801 96.3084 43.7754 96.744 43.9659C97.1932 44.1429 97.5675 44.4559 97.8669 44.9051C98.18 45.3406 98.4182 45.9191 98.5815 46.6405L98.214 46.4567L98.3569 46.1097C98.493 45.7966 98.6904 45.4972 98.949 45.2113C99.2212 44.9119 99.5275 44.6465 99.8677 44.4151C100.222 44.1837 100.603 44.0067 101.011 43.8842C101.433 43.7481 101.862 43.6801 102.297 43.6801C103.046 43.6801 103.679 43.8434 104.196 44.1701C104.713 44.4831 105.101 44.9663 105.36 45.6197C105.632 46.273 105.768 47.1033 105.768 48.1105V54.5417H104.196V48.1922C104.196 47.4844 104.108 46.9059 103.931 46.4567C103.754 46.0076 103.488 45.6741 103.134 45.4563C102.794 45.2249 102.359 45.1092 101.828 45.1092C101.365 45.1092 100.936 45.1909 100.541 45.3542C100.16 45.504 99.8269 45.7217 99.5411 46.0076C99.2689 46.2798 99.0511 46.5929 98.8877 46.9467C98.738 47.3006 98.6632 47.6817 98.6632 48.0901V54.5417H97.1115V48.1717C97.1115 47.4912 97.0162 46.9263 96.8257 46.4772C96.6487 46.028 96.3833 45.6877 96.0294 45.4563C95.6755 45.2249 95.24 45.1092 94.7227 45.1092C94.2736 45.1092 93.8584 45.1909 93.4773 45.3542C93.0962 45.504 92.7627 45.7149 92.4769 45.9872C92.2047 46.2594 91.9869 46.5724 91.8236 46.9263C91.6739 47.2802 91.599 47.6613 91.599 48.0697V54.5417H90.0473ZM117.327 54.7459C116.401 54.7459 115.564 54.5077 114.815 54.0313C114.067 53.5413 113.475 52.8812 113.039 52.0509C112.604 51.207 112.386 50.2542 112.386 49.1926C112.386 48.1173 112.61 47.1645 113.06 46.3342C113.509 45.504 114.108 44.8506 114.856 44.3742C115.619 43.8979 116.469 43.6597 117.408 43.6597C117.966 43.6597 118.484 43.7413 118.96 43.9047C119.436 44.068 119.858 44.2994 120.226 44.5988C120.607 44.8847 120.92 45.2249 121.165 45.6197C121.424 46.0008 121.601 46.4159 121.696 46.8651L121.247 46.6405L121.308 43.8842H122.839V54.5417H121.288V51.9284L121.696 51.663C121.601 52.0713 121.417 52.4661 121.145 52.8472C120.872 53.2147 120.539 53.5413 120.144 53.8272C119.763 54.113 119.328 54.3376 118.838 54.5009C118.361 54.6642 117.858 54.7459 117.327 54.7459ZM117.674 53.2759C118.382 53.2759 119.014 53.1058 119.573 52.7655C120.131 52.4116 120.566 51.9284 120.879 51.3159C121.206 50.6898 121.369 49.982 121.369 49.1926C121.369 48.4031 121.206 47.7022 120.879 47.0897C120.566 46.4772 120.131 45.994 119.573 45.6401C119.014 45.2862 118.382 45.1092 117.674 45.1092C116.952 45.1092 116.313 45.2862 115.755 45.6401C115.21 45.994 114.775 46.4772 114.448 47.0897C114.135 47.7022 113.978 48.4031 113.978 49.1926C113.978 49.9684 114.135 50.6694 114.448 51.2955C114.761 51.908 115.197 52.3912 115.755 52.7451C116.313 53.099 116.952 53.2759 117.674 53.2759ZM131.784 54.5417V41.0872H133.315V54.5417H131.784ZM129.375 45.3542V43.8842H136.01V45.3542H129.375ZM146.159 54.7459C145.343 54.7459 144.649 54.5826 144.077 54.2559C143.519 53.9156 143.09 53.4256 142.791 52.7859C142.505 52.1462 142.362 51.3499 142.362 50.3972V43.8842H143.914V50.0909C143.914 50.8123 144.009 51.418 144.199 51.908C144.404 52.3844 144.703 52.7451 145.098 52.9901C145.506 53.2351 146.003 53.3576 146.588 53.3576C147.037 53.3576 147.452 53.2827 147.834 53.133C148.215 52.9697 148.548 52.7519 148.834 52.4797C149.12 52.2074 149.344 51.8876 149.508 51.5201C149.671 51.1526 149.753 50.7647 149.753 50.3563V43.8842H151.284V54.5417H149.773L149.712 52.2959L149.957 52.1734C149.794 52.6498 149.521 53.0854 149.14 53.4801C148.759 53.8612 148.303 54.1674 147.772 54.3988C147.255 54.6302 146.717 54.7459 146.159 54.7459ZM158.757 54.5417V43.8842H160.288L160.329 46.7222L160.166 46.3342C160.316 45.8579 160.554 45.4155 160.88 45.0072C161.221 44.5988 161.622 44.2722 162.085 44.0272C162.548 43.7822 163.058 43.6597 163.616 43.6597C163.848 43.6597 164.065 43.6801 164.27 43.7209C164.474 43.7481 164.644 43.789 164.78 43.8434L164.351 45.5584C164.174 45.4767 163.991 45.4223 163.8 45.3951C163.623 45.3542 163.453 45.3338 163.29 45.3338C162.827 45.3338 162.412 45.4155 162.044 45.5788C161.677 45.7422 161.364 45.9736 161.105 46.273C160.846 46.5588 160.649 46.8923 160.513 47.2734C160.377 47.6545 160.309 48.0629 160.309 48.4984V54.5417H158.757ZM174.572 54.7459C173.646 54.7459 172.809 54.5077 172.06 54.0313C171.312 53.5413 170.72 52.8812 170.284 52.0509C169.848 51.207 169.631 50.2542 169.631 49.1926C169.631 48.1173 169.855 47.1645 170.304 46.3342C170.754 45.504 171.353 44.8506 172.101 44.3742C172.863 43.8979 173.714 43.6597 174.653 43.6597C175.211 43.6597 175.728 43.7413 176.205 43.9047C176.681 44.068 177.103 44.2994 177.471 44.5988C177.852 44.8847 178.165 45.2249 178.41 45.6197C178.668 46.0008 178.845 46.4159 178.941 46.8651L178.492 46.6405L178.553 43.8842H180.084V54.5417H178.532V51.9284L178.941 51.663C178.845 52.0713 178.662 52.4661 178.389 52.8472C178.117 53.2147 177.784 53.5413 177.389 53.8272C177.008 54.113 176.572 54.3376 176.082 54.5009C175.606 54.6642 175.102 54.7459 174.572 54.7459ZM174.919 53.2759C175.626 53.2759 176.259 53.1058 176.817 52.7655C177.375 52.4116 177.811 51.9284 178.124 51.3159C178.451 50.6898 178.614 49.982 178.614 49.1926C178.614 48.4031 178.451 47.7022 178.124 47.0897C177.811 46.4772 177.375 45.994 176.817 45.6401C176.259 45.2862 175.626 45.1092 174.919 45.1092C174.197 45.1092 173.558 45.2862 172.999 45.6401C172.455 45.994 172.019 46.4772 171.693 47.0897C171.38 47.7022 171.223 48.4031 171.223 49.1926C171.223 49.9684 171.38 50.6694 171.693 51.2955C172.006 51.908 172.441 52.3912 172.999 52.7451C173.558 53.099 174.197 53.2759 174.919 53.2759Z" fill="white"/>
<path d="M0 16.0417H58.24" stroke="#FFC838" stroke-width="1.45833"/>
<path d="M0 37.9167H45.136" stroke="#FFC838" stroke-width="1.45833"/>
<path d="M4.36816 8.75V64.1667" stroke="#FFC838" stroke-width="1.45833"/>
<path d="M45.1362 8.75V64.1667" stroke="#FFC838" stroke-width="1.45833"/>
<path d="M15 4L15 64" stroke="#FFC838" stroke-width="1.45833"/>
<path d="M35 4L35 65" stroke="#FFC838" stroke-width="1.45833"/>
<path d="M24.752 0V64.1667" stroke="#FFC838" stroke-width="1.45833"/>
<path d="M0 61H90.5H181L181 67H0V61Z" fill="#FFC838"/>
<path d="M3.71783 60.9174C3.92847 60.365 4.45829 60 5.04948 60C6.0479 60 6.73687 61.0001 6.38113 61.933L4.41747 67.0826C4.20683 67.635 3.67702 68 3.08582 68C2.0874 68 1.39844 66.9999 1.75417 66.067L3.71783 60.9174Z" fill="url(#paint0_linear_51_130)"/>
<path d="M11.8526 60.9174C12.0632 60.365 12.5931 60 13.1842 60C14.1827 60 14.8716 61.0001 14.5159 61.933L12.5522 67.0826C12.3416 67.635 11.8118 68 11.2206 68C10.2222 68 9.5332 66.9999 9.88893 66.067L11.8526 60.9174Z" fill="url(#paint1_linear_51_130)"/>
<path d="M18.9703 60.9174C19.1809 60.365 19.7107 60 20.3019 60C21.3003 60 21.9893 61.0001 21.6336 61.933L19.6699 67.0826C19.4593 67.635 18.9295 68 18.3383 68C17.3398 68 16.6509 66.9999 17.0066 66.067L18.9703 60.9174Z" fill="url(#paint2_linear_51_130)"/>
<path d="M27.105 60.9174C27.3157 60.365 27.8455 60 28.4367 60C29.4351 60 30.1241 61.0001 29.7683 61.933L27.8047 67.0826C27.594 67.635 27.0642 68 26.473 68C25.4746 68 24.7856 66.9999 25.1414 66.067L27.105 60.9174Z" fill="url(#paint3_linear_51_130)"/>
<path d="M34.2232 60.9174C34.4338 60.365 34.9637 60 35.5549 60C36.5533 60 37.2422 61.0001 36.8865 61.933L34.9228 67.0826C34.7122 67.635 34.1824 68 33.5912 68C32.5928 68 31.9038 66.9999 32.2595 66.067L34.2232 60.9174Z" fill="url(#paint4_linear_51_130)"/>
<path d="M42.358 60.9174C42.5686 60.365 43.0984 60 43.6896 60C44.688 60 45.377 61.0001 45.0213 61.933L43.0576 67.0826C42.847 67.635 42.3172 68 41.726 68C40.7275 68 40.0386 66.9999 40.3943 66.067L42.358 60.9174Z" fill="url(#paint5_linear_51_130)"/>
<path d="M49.4761 60.9174C49.6868 60.365 50.2166 60 50.8078 60C51.8062 60 52.4952 61.0001 52.1394 61.933L50.1758 67.0826C49.9651 67.635 49.4353 68 48.8441 68C47.8457 68 47.1567 66.9999 47.5125 66.067L49.4761 60.9174Z" fill="url(#paint6_linear_51_130)"/>
<path d="M57.6109 60.9174C57.8215 60.365 58.3514 60 58.9425 60C59.941 60 60.6299 61.0001 60.2742 61.933L58.3105 67.0826C58.0999 67.635 57.5701 68 56.9789 68C55.9805 68 55.2915 66.9999 55.6472 66.067L57.6109 60.9174Z" fill="url(#paint7_linear_51_130)"/>
<path d="M64.7291 60.9174C64.9397 60.365 65.4695 60 66.0607 60C67.0591 60 67.7481 61.0001 67.3924 61.933L65.4287 67.0826C65.2181 67.635 64.6882 68 64.0971 68C63.0986 68 62.4097 66.9999 62.7654 66.067L64.7291 60.9174Z" fill="url(#paint8_linear_51_130)"/>
<path d="M72.8638 60.9174C73.0745 60.365 73.6043 60 74.1955 60C75.1939 60 75.8829 61.0001 75.5271 61.933L73.5635 67.0826C73.3528 67.635 72.823 68 72.2318 68C71.2334 68 70.5444 66.9999 70.9002 66.067L72.8638 60.9174Z" fill="url(#paint9_linear_51_130)"/>
<path d="M79.9815 60.9174C80.1921 60.365 80.722 60 81.3132 60C82.3116 60 83.0005 61.0001 82.6448 61.933L80.6811 67.0826C80.4705 67.635 79.9407 68 79.3495 68C78.3511 68 77.6621 66.9999 78.0178 66.067L79.9815 60.9174Z" fill="url(#paint10_linear_51_130)"/>
<path d="M87.6893 60.8445C87.8491 60.3416 88.3161 60 88.8438 60C89.6635 60 90.2465 60.7971 89.9983 61.5782L88.226 67.1555C88.0662 67.6584 87.5992 68 87.0715 68C86.2519 68 85.6688 67.2029 85.917 66.4218L87.6893 60.8445Z" fill="url(#paint11_linear_51_130)"/>
<path d="M95.2344 60.9174C95.4451 60.365 95.9749 60 96.5661 60C97.5645 60 98.2535 61.0001 97.8977 61.933L95.9341 67.0826C95.7234 67.635 95.1936 68 94.6024 68C93.604 68 92.915 66.9999 93.2708 66.067L95.2344 60.9174Z" fill="url(#paint12_linear_51_130)"/>
<path d="M102.353 60.9174C102.563 60.365 103.093 60 103.684 60C104.683 60 105.372 61.0001 105.016 61.933L103.052 67.0826C102.842 67.635 102.312 68 101.721 68C100.722 68 100.033 66.9999 100.389 66.067L102.353 60.9174Z" fill="url(#paint13_linear_51_130)"/>
<path d="M110.487 60.9174C110.698 60.365 111.228 60 111.819 60C112.817 60 113.506 61.0001 113.151 61.933L111.187 67.0826C110.976 67.635 110.447 68 109.855 68C108.857 68 108.168 66.9999 108.524 66.067L110.487 60.9174Z" fill="url(#paint14_linear_51_130)"/>
<path d="M117.605 60.9174C117.816 60.365 118.345 60 118.937 60C119.935 60 120.624 61.0001 120.268 61.933L118.305 67.0826C118.094 67.635 117.564 68 116.973 68C115.975 68 115.286 66.9999 115.641 66.067L117.605 60.9174Z" fill="url(#paint15_linear_51_130)"/>
<path d="M125.74 60.9174C125.951 60.365 126.481 60 127.072 60C128.07 60 128.759 61.0001 128.404 61.933L126.44 67.0826C126.229 67.635 125.699 68 125.108 68C124.11 68 123.421 66.9999 123.777 66.067L125.74 60.9174Z" fill="url(#paint16_linear_51_130)"/>
<path d="M132.858 60.9174C133.069 60.365 133.598 60 134.19 60C135.188 60 135.877 61.0001 135.521 61.933L133.558 67.0826C133.347 67.635 132.817 68 132.226 68C131.228 68 130.539 66.9999 130.894 66.067L132.858 60.9174Z" fill="url(#paint17_linear_51_130)"/>
<path d="M140.993 60.9174C141.203 60.365 141.733 60 142.324 60C143.323 60 144.012 61.0001 143.656 61.933L141.692 67.0826C141.482 67.635 140.952 68 140.361 68C139.362 68 138.673 66.9999 139.029 66.067L140.993 60.9174Z" fill="url(#paint18_linear_51_130)"/>
<path d="M148.111 60.9174C148.322 60.365 148.851 60 149.443 60C150.441 60 151.13 61.0001 150.774 61.933L148.811 67.0826C148.6 67.635 148.07 68 147.479 68C146.48 68 145.792 66.9999 146.147 66.067L148.111 60.9174Z" fill="url(#paint19_linear_51_130)"/>
<path d="M156.246 60.9174C156.456 60.365 156.986 60 157.577 60C158.576 60 159.265 61.0001 158.909 61.933L156.945 67.0826C156.735 67.635 156.205 68 155.614 68C154.615 68 153.926 66.9999 154.282 66.067L156.246 60.9174Z" fill="url(#paint20_linear_51_130)"/>
<path d="M163.364 60.9174C163.574 60.365 164.104 60 164.695 60C165.694 60 166.383 61.0001 166.027 61.933L164.063 67.0826C163.853 67.635 163.323 68 162.732 68C161.733 68 161.044 66.9999 161.4 66.067L163.364 60.9174Z" fill="url(#paint21_linear_51_130)"/>
<path d="M171.499 60.9174C171.709 60.365 172.239 60 172.83 60C173.829 60 174.518 61.0001 174.162 61.933L172.198 67.0826C171.988 67.635 171.458 68 170.867 68C169.868 68 169.179 66.9999 169.535 66.067L171.499 60.9174Z" fill="url(#paint22_linear_51_130)"/>
<defs>
<linearGradient id="paint0_linear_51_130" x1="4.06765" y1="60" x2="4.06765" y2="68" gradientUnits="userSpaceOnUse">
<stop stop-color="#8C4E00"/>
<stop offset="1" stop-color="#FFB320"/>
</linearGradient>
<linearGradient id="paint1_linear_51_130" x1="12.2024" y1="60" x2="12.2024" y2="68" gradientUnits="userSpaceOnUse">
<stop stop-color="#8C4E00"/>
<stop offset="1" stop-color="#FFB320"/>
</linearGradient>
<linearGradient id="paint2_linear_51_130" x1="19.3201" y1="60" x2="19.3201" y2="68" gradientUnits="userSpaceOnUse">
<stop stop-color="#8C4E00"/>
<stop offset="1" stop-color="#FFB320"/>
</linearGradient>
<linearGradient id="paint3_linear_51_130" x1="27.4549" y1="60" x2="27.4549" y2="68" gradientUnits="userSpaceOnUse">
<stop stop-color="#8C4E00"/>
<stop offset="1" stop-color="#FFB320"/>
</linearGradient>
<linearGradient id="paint4_linear_51_130" x1="34.573" y1="60" x2="34.573" y2="68" gradientUnits="userSpaceOnUse">
<stop stop-color="#8C4E00"/>
<stop offset="1" stop-color="#FFB320"/>
</linearGradient>
<linearGradient id="paint5_linear_51_130" x1="42.7078" y1="60" x2="42.7078" y2="68" gradientUnits="userSpaceOnUse">
<stop stop-color="#8C4E00"/>
<stop offset="1" stop-color="#FFB320"/>
</linearGradient>
<linearGradient id="paint6_linear_51_130" x1="49.826" y1="60" x2="49.826" y2="68" gradientUnits="userSpaceOnUse">
<stop stop-color="#8C4E00"/>
<stop offset="1" stop-color="#FFB320"/>
</linearGradient>
<linearGradient id="paint7_linear_51_130" x1="57.9607" y1="60" x2="57.9607" y2="68" gradientUnits="userSpaceOnUse">
<stop stop-color="#8C4E00"/>
<stop offset="1" stop-color="#FFB320"/>
</linearGradient>
<linearGradient id="paint8_linear_51_130" x1="65.0789" y1="60" x2="65.0789" y2="68" gradientUnits="userSpaceOnUse">
<stop stop-color="#8C4E00"/>
<stop offset="1" stop-color="#FFB320"/>
</linearGradient>
<linearGradient id="paint9_linear_51_130" x1="73.2136" y1="60" x2="73.2136" y2="68" gradientUnits="userSpaceOnUse">
<stop stop-color="#8C4E00"/>
<stop offset="1" stop-color="#FFB320"/>
</linearGradient>
<linearGradient id="paint10_linear_51_130" x1="80.3313" y1="60" x2="80.3313" y2="68" gradientUnits="userSpaceOnUse">
<stop stop-color="#8C4E00"/>
<stop offset="1" stop-color="#FFB320"/>
</linearGradient>
<linearGradient id="paint11_linear_51_130" x1="87.9577" y1="60" x2="87.9577" y2="68" gradientUnits="userSpaceOnUse">
<stop stop-color="#8C4E00"/>
<stop offset="1" stop-color="#FFB320"/>
</linearGradient>
<linearGradient id="paint12_linear_51_130" x1="95.5843" y1="60" x2="95.5843" y2="68" gradientUnits="userSpaceOnUse">
<stop stop-color="#8C4E00"/>
<stop offset="1" stop-color="#FFB320"/>
</linearGradient>
<linearGradient id="paint13_linear_51_130" x1="102.702" y1="60" x2="102.702" y2="68" gradientUnits="userSpaceOnUse">
<stop stop-color="#8C4E00"/>
<stop offset="1" stop-color="#FFB320"/>
</linearGradient>
<linearGradient id="paint14_linear_51_130" x1="110.837" y1="60" x2="110.837" y2="68" gradientUnits="userSpaceOnUse">
<stop stop-color="#8C4E00"/>
<stop offset="1" stop-color="#FFB320"/>
</linearGradient>
<linearGradient id="paint15_linear_51_130" x1="117.955" y1="60" x2="117.955" y2="68" gradientUnits="userSpaceOnUse">
<stop stop-color="#8C4E00"/>
<stop offset="1" stop-color="#FFB320"/>
</linearGradient>
<linearGradient id="paint16_linear_51_130" x1="126.09" y1="60" x2="126.09" y2="68" gradientUnits="userSpaceOnUse">
<stop stop-color="#8C4E00"/>
<stop offset="1" stop-color="#FFB320"/>
</linearGradient>
<linearGradient id="paint17_linear_51_130" x1="133.208" y1="60" x2="133.208" y2="68" gradientUnits="userSpaceOnUse">
<stop stop-color="#8C4E00"/>
<stop offset="1" stop-color="#FFB320"/>
</linearGradient>
<linearGradient id="paint18_linear_51_130" x1="141.343" y1="60" x2="141.343" y2="68" gradientUnits="userSpaceOnUse">
<stop stop-color="#8C4E00"/>
<stop offset="1" stop-color="#FFB320"/>
</linearGradient>
<linearGradient id="paint19_linear_51_130" x1="148.461" y1="60" x2="148.461" y2="68" gradientUnits="userSpaceOnUse">
<stop stop-color="#8C4E00"/>
<stop offset="1" stop-color="#FFB320"/>
</linearGradient>
<linearGradient id="paint20_linear_51_130" x1="156.595" y1="60" x2="156.595" y2="68" gradientUnits="userSpaceOnUse">
<stop stop-color="#8C4E00"/>
<stop offset="1" stop-color="#FFB320"/>
</linearGradient>
<linearGradient id="paint21_linear_51_130" x1="163.714" y1="60" x2="163.714" y2="68" gradientUnits="userSpaceOnUse">
<stop stop-color="#8C4E00"/>
<stop offset="1" stop-color="#FFB320"/>
</linearGradient>
<linearGradient id="paint22_linear_51_130" x1="171.848" y1="60" x2="171.848" y2="68" gradientUnits="userSpaceOnUse">
<stop stop-color="#8C4E00"/>
<stop offset="1" stop-color="#FFB320"/>
</linearGradient>
</defs>
</svg>
