<svg xmlns="http://www.w3.org/2000/svg" viewBox="0 0 593.71 46.48"><defs><style>.cls-1{fill:#231f20;}</style></defs><title>Asset 4</title><g id="Layer_2" data-name="Layer 2"><g id="Layer_1-2" data-name="Layer 1"><path class="cls-1" d="M20.39,14.11,14.84,34.86l13.28,0,1.8-6.64H43.23L39.84,40.64l-7.37,5.81-28.22,0L0,40.67,7.11,14.11ZM7.77,11.62,9.33,5.81,16.67,0H44.92l4.25,5.81L45.85,18.26l-13.31,0,1.79-6.61Z"/><path class="cls-1" d="M76.43,23.34l-.56.67-6,22.47H56.58l6-22.47L55.75,0H69.86Zm-1.76-15L81.48,0H95.59L78.26,21.08Z"/><path class="cls-1" d="M99.11,11.62,102.23,0h34l4.25,5.81-3.79,14.11-4.18,3.32L135,26.56l-3.78,14.08-7.38,5.81-34,0,8.67-32.37h13.28l-.9,3.32,13.32,0,1.52-5.78Zm7.07,23.24,13.28,0L121,29.05H107.74Z"/><path class="cls-1" d="M158.21,14.11l-.89,3.32h13.31l-3.12,11.62H154.23l-1.56,5.81h23.27l-3.15,11.62H136.27L145,14.11Zm-12.58-2.49L148.75,0h36.52l-3.15,11.62Z"/><path class="cls-1" d="M188.79,11.62,191.91,0h34l4.25,5.81-4.65,17.4-6.74,5.31,2.16,18H206L204,29.05h-6.54l-4.69,17.43H179.46l8.67-32.37h13.28l-.9,3.32,13.32,0,1.53-5.78Z"/><path class="cls-1" d="M284.05,11.62H270.77L277.41,0h19.92L299,46.48H285.71l-.4-11.62H270.77l-6.64,11.62H250.85l18.49-32.37h13.29l-5.18,9.13h7.47l-.47-12.32Z"/><path class="cls-1" d="M327.58,14.11l-8.66,32.37H305.63l8.67-32.37ZM315,11.62,318.09,0h20.75L347,28.49,354.61,0h13.28L355.44,46.48H338l-9.76-34.86Z"/><path class="cls-1" d="M375.36,46.48H362.08L374.53,0h13.28Z"/><path class="cls-1" d="M414.38,46.48H401.09l-.69-19.12-5.12,19.12H382L394.45,0h18.26l1,27.36Zm1.69-23.24L429.32,0h18.26L435.13,46.48H421.85L427,27.36,416.83,45.12Z"/><path class="cls-1" d="M473.31,11.62H460L466.67,0h19.92l1.66,46.48H475l-.4-11.62H460l-6.64,11.62H440.11L458.6,14.11h13.28l-5.18,9.13h7.47l-.46-12.32Z"/><path class="cls-1" d="M507.38,0h13.25l-9.34,34.86h26.6l-3.15,11.62H494.89Z"/><path class="cls-1" d="M563.36,14.11l-.9,3.32h20.75l4.29,5.81-4.69,17.43-7.37,5.81h-34l3.12-11.62h26.56l1.56-5.81H551.9l-4.25-5.81,2.43-9.13Zm-12.62-2.49,1.56-5.81L559.64,0h34.07l-3.13,11.62Z"/></g></g></svg>