<svg width="40" height="40" viewBox="0 0 40 40" fill="none" xmlns="http://www.w3.org/2000/svg">
<circle cx="20" cy="20" r="20" fill="#FFC838"/>
<path d="M19.9969 13.4416C22.1334 13.4416 22.3842 13.4511 23.2286 13.4892C24.0096 13.5241 24.4318 13.6543 24.7143 13.7654C25.089 13.9115 25.3556 14.083 25.635 14.3624C25.9143 14.6418 26.089 14.9085 26.2318 15.2832C26.3397 15.5658 26.4731 15.9881 26.508 16.7692C26.5461 17.6138 26.5556 17.8647 26.5556 20.0016C26.5556 22.1385 26.5461 22.3894 26.508 23.234C26.4731 24.0151 26.3429 24.4374 26.2318 24.72C26.0858 25.0947 25.9143 25.3614 25.635 25.6408C25.3556 25.9202 25.089 26.0949 24.7143 26.2377C24.4318 26.3457 24.0096 26.4791 23.2286 26.514C22.3842 26.5521 22.1334 26.5616 19.9969 26.5616C17.8604 26.5616 17.6096 26.5521 16.7651 26.514C15.9842 26.4791 15.562 26.3489 15.2794 26.2377C14.9048 26.0917 14.6382 25.9202 14.3588 25.6408C14.0794 25.3614 13.9048 25.0947 13.762 24.72C13.654 24.4374 13.5207 24.0151 13.4858 23.234C13.4477 22.3894 13.4382 22.1385 13.4382 20.0016C13.4382 17.8647 13.4477 17.6138 13.4858 16.7692C13.5207 15.9881 13.6509 15.5658 13.762 15.2832C13.908 14.9085 14.0794 14.6418 14.3588 14.3624C14.6382 14.083 14.9048 13.9083 15.2794 13.7654C15.562 13.6575 15.9842 13.5241 16.7651 13.4892C17.6096 13.4479 17.8604 13.4416 19.9969 13.4416ZM19.9969 12C17.8255 12 17.5524 12.0095 16.6985 12.0476C15.8477 12.0857 15.2667 12.2223 14.7588 12.4191C14.2318 12.6223 13.7874 12.8986 13.3429 13.3431C12.8985 13.7877 12.6255 14.2354 12.4191 14.7593C12.2223 15.2673 12.0858 15.8484 12.0477 16.7025C12.0096 17.5535 12.0001 17.8266 12.0001 19.9984C12.0001 22.1703 12.0096 22.4433 12.0477 23.2975C12.0858 24.1484 12.2223 24.7295 12.4191 25.2407C12.6223 25.7678 12.8985 26.2123 13.3429 26.6569C13.7874 27.1014 14.235 27.3745 14.7588 27.5809C15.2667 27.7777 15.8477 27.9143 16.7016 27.9524C17.5556 27.9905 17.8255 28 20.0001 28C22.1747 28 22.4445 27.9905 23.2985 27.9524C24.1493 27.9143 24.7302 27.7777 25.2413 27.5809C25.7683 27.3777 26.2128 27.1014 26.6572 26.6569C27.1016 26.2123 27.3747 25.7646 27.581 25.2407C27.7778 24.7327 27.9143 24.1516 27.9524 23.2975C27.9905 22.4433 28.0001 22.1734 28.0001 19.9984C28.0001 17.8234 27.9905 17.5535 27.9524 16.6993C27.9143 15.8484 27.7778 15.2673 27.581 14.7561C27.3778 14.229 27.1016 13.7845 26.6572 13.3399C26.2128 12.8954 25.7651 12.6223 25.2413 12.416C24.7334 12.2191 24.1524 12.0826 23.2985 12.0445C22.4413 12.0095 22.1683 12 19.9969 12Z" fill="#1F1E1E"/>
<path d="M19.9959 15.8904C17.7292 15.8904 15.8879 17.7288 15.8879 19.9991C15.8879 22.2694 17.7292 24.1079 19.9959 24.1079C22.2625 24.1079 24.1038 22.2663 24.1038 19.9991C24.1038 17.732 22.2625 15.8904 19.9959 15.8904ZM19.9959 22.6663C18.5229 22.6663 17.3292 21.4724 17.3292 19.9991C17.3292 18.5258 18.5229 17.3319 19.9959 17.3319C21.4689 17.3319 22.6625 18.5258 22.6625 19.9991C22.6625 21.4724 21.4689 22.6663 19.9959 22.6663Z" fill="#1F1E1E"/>
<path d="M24.2687 16.6879C24.7982 16.6879 25.2275 16.2585 25.2275 15.7289C25.2275 15.1993 24.7982 14.77 24.2687 14.77C23.7392 14.77 23.31 15.1993 23.31 15.7289C23.31 16.2585 23.7392 16.6879 24.2687 16.6879Z" fill="#1F1E1E"/>
</svg>
