<svg width="42" height="40" viewBox="0 0 42 40" fill="none" xmlns="http://www.w3.org/2000/svg">
<ellipse cx="21.2478" cy="20" rx="20.2568" ry="20" fill="#FFC838"/>
<g clip-path="url(#clip0_101_347)">
<path d="M28.1812 16.3373C27.3434 16.3755 27.3617 16.3724 27.267 16.3802L27.7632 14.9811C27.7632 14.9811 26.2143 15.5436 25.8216 15.6443C24.7904 14.7291 23.2575 14.6887 22.1617 15.3537C21.2643 15.8984 20.7826 16.8338 20.9433 17.9271C19.1967 17.6878 17.7251 16.8704 16.5633 15.4925L16.1959 15.0567L15.9213 15.5546C15.5743 16.1836 15.459 16.9029 15.5967 17.5799C15.6532 17.8576 15.7492 18.1224 15.8823 18.3705L15.567 18.2499L15.5296 18.7699C15.4917 19.2981 15.6699 19.9148 16.0062 20.4192C16.101 20.5613 16.2229 20.7173 16.3775 20.8712L16.2146 20.8466L16.4133 21.4424C16.6746 22.2253 17.2172 22.831 17.9215 23.1677C17.2182 23.4624 16.65 23.6504 15.7161 23.9537L14.8617 24.231L15.6509 24.6571C15.9518 24.8195 17.015 25.362 18.0656 25.5247C20.4008 25.8863 23.03 25.5918 24.8 24.0179C26.2909 22.6923 26.7801 20.8065 26.6785 18.8441C26.6631 18.5471 26.7456 18.2635 26.9106 18.0459C27.2412 17.6102 28.1792 16.3403 28.1812 16.3373ZM26.2865 17.5844C26.0125 17.9457 25.8752 18.4071 25.8998 18.8835C26.0023 20.8629 25.4568 22.398 24.2783 23.4458C22.9017 24.67 20.6812 25.1505 18.1864 24.7641C17.7346 24.6942 17.2677 24.5376 16.8812 24.3811C17.6642 24.1152 18.2688 23.8781 19.2453 23.4218L20.6084 22.7848L19.1034 22.6896C18.3825 22.6441 17.7823 22.2992 17.4133 21.7391C17.6092 21.7279 17.7981 21.6966 17.9862 21.6448L19.4216 21.2501L17.9742 20.9001C17.2709 20.7301 16.87 20.3146 16.6575 19.9959C16.518 19.7866 16.4268 19.572 16.3722 19.3743C16.5173 19.4127 16.6865 19.4401 16.9593 19.4668L18.299 19.5976L17.2376 18.7801C16.4728 18.1912 16.1663 17.3063 16.391 16.4557C18.7778 18.9 21.5803 18.7163 21.8624 18.7809C21.8003 18.1855 21.7987 18.1841 21.7824 18.1274C21.4212 16.8665 22.2129 16.2263 22.57 16.0096C23.3159 15.557 24.4999 15.4887 25.3199 16.2344C25.4971 16.3953 25.7366 16.4586 25.9607 16.4037C26.162 16.3543 26.3271 16.302 26.4888 16.2451L26.1522 17.1941L26.5818 17.1944C26.5008 17.3017 26.4035 17.4303 26.2865 17.5844Z" fill="#1F1E1E"/>
</g>
<defs>
<clipPath id="clip0_101_347">
<rect width="13.3196" height="13.1507" fill="white" transform="translate(14.8617 13.6938)"/>
</clipPath>
</defs>
</svg>
